<?xml version="1.0" encoding="utf-8"?>
<!-- Generator: Adobe Illustrator 16.0.0, SVG Export Plug-In . SVG Version: 6.00 Build 0)  -->
<!DOCTYPE svg PUBLIC "-//W3C//DTD SVG 1.1//EN" "http://www.w3.org/Graphics/SVG/1.1/DTD/svg11.dtd">
<svg version="1.1" id="圖層_1" xmlns="http://www.w3.org/2000/svg" xmlns:xlink="http://www.w3.org/1999/xlink" x="0px" y="0px"
	 width="412px" height="732px" viewBox="0 0 412 732" enable-background="new 0 0 412 732" xml:space="preserve">
<g opacity="0.7">
	<path fill="#bcbcbc" d="M0,0v732h412V0H0z M316,361H96V141h220V361z"/>
</g>
<polygon fill="#00913A" points="132.667,145.334 132.667,140.334 95.667,140.334 95.667,177.334 100.667,177.334 100.667,145.334 
	"/>
<polygon fill="#00913A" points="311.5,177.335 316.5,177.335 316.5,140.335 279.5,140.335 279.5,145.335 311.5,145.335 "/>
<polygon fill="#00913A" points="100.667,324.335 95.667,324.335 95.667,361.335 132.667,361.335 132.667,356.335 100.667,356.335 
	"/>
<polygon fill="#00913A" points="279.499,356.336 279.499,361.336 316.499,361.336 316.499,324.336 311.499,324.336 311.499,356.336 
	"/>
</svg>
